<mxfile host="app.diagrams.net" modified="2020-10-03T14:16:34.510Z" agent="5.0 (X11; Linux x86_64) AppleWebKit/537.36 (KHTML, like Gecko) Chrome/85.0.4183.121 Safari/537.36" etag="XYjxh6FDFERatMvkwk7F" version="13.7.7" type="github">
  <diagram name="Page-1" id="e7e014a7-5840-1c2e-5031-d8a46d1fe8dd">
    <mxGraphModel dx="1185" dy="601" grid="1" gridSize="10" guides="1" tooltips="1" connect="1" arrows="1" fold="1" page="1" pageScale="1" pageWidth="1169" pageHeight="826" background="#ffffff" math="0" shadow="0">
      <root>
        <mxCell id="0" />
        <mxCell id="1" parent="0" />
        <mxCell id="p6Hwav64YAK3mJRrAbid-41" value="Actor" style="swimlane;" vertex="1" parent="1">
          <mxGeometry x="480" y="270" width="200" height="250" as="geometry" />
        </mxCell>
        <mxCell id="p6Hwav64YAK3mJRrAbid-43" value="" style="ellipse;html=1;shape=startState;fillColor=#000000;strokeColor=#ff0000;" vertex="1" parent="p6Hwav64YAK3mJRrAbid-41">
          <mxGeometry x="85" y="40" width="30" height="30" as="geometry" />
        </mxCell>
        <mxCell id="p6Hwav64YAK3mJRrAbid-44" value="" style="edgeStyle=orthogonalEdgeStyle;html=1;verticalAlign=bottom;endArrow=open;endSize=8;strokeColor=#ff0000;" edge="1" source="p6Hwav64YAK3mJRrAbid-43" parent="p6Hwav64YAK3mJRrAbid-41">
          <mxGeometry relative="1" as="geometry">
            <mxPoint x="100" y="100" as="targetPoint" />
          </mxGeometry>
        </mxCell>
        <mxCell id="p6Hwav64YAK3mJRrAbid-45" value="Người dùng đăng nhập thành công" style="rounded=1;whiteSpace=wrap;html=1;fillColor=#dae8fc;strokeColor=#6c8ebf;" vertex="1" parent="p6Hwav64YAK3mJRrAbid-41">
          <mxGeometry x="40" y="100" width="120" height="60" as="geometry" />
        </mxCell>
        <mxCell id="p6Hwav64YAK3mJRrAbid-42" value="Hệ thống" style="swimlane;startSize=23;" vertex="1" parent="1">
          <mxGeometry x="680" y="270" width="200" height="250" as="geometry" />
        </mxCell>
        <mxCell id="p6Hwav64YAK3mJRrAbid-49" style="edgeStyle=orthogonalEdgeStyle;rounded=0;orthogonalLoop=1;jettySize=auto;html=1;exitX=0.5;exitY=1;exitDx=0;exitDy=0;entryX=0.5;entryY=0;entryDx=0;entryDy=0;" edge="1" parent="p6Hwav64YAK3mJRrAbid-42" source="p6Hwav64YAK3mJRrAbid-46" target="p6Hwav64YAK3mJRrAbid-48">
          <mxGeometry relative="1" as="geometry" />
        </mxCell>
        <mxCell id="p6Hwav64YAK3mJRrAbid-46" value="Hệ thống hiển thị màn hình quản lý bán thuốc" style="rounded=1;whiteSpace=wrap;html=1;fillColor=#dae8fc;strokeColor=#6c8ebf;" vertex="1" parent="p6Hwav64YAK3mJRrAbid-42">
          <mxGeometry x="40" y="100" width="120" height="60" as="geometry" />
        </mxCell>
        <mxCell id="p6Hwav64YAK3mJRrAbid-48" value="" style="ellipse;html=1;shape=endState;fillColor=#000000;strokeColor=#ff0000;" vertex="1" parent="p6Hwav64YAK3mJRrAbid-42">
          <mxGeometry x="85" y="190" width="30" height="30" as="geometry" />
        </mxCell>
        <mxCell id="p6Hwav64YAK3mJRrAbid-47" style="edgeStyle=orthogonalEdgeStyle;rounded=0;orthogonalLoop=1;jettySize=auto;html=1;exitX=1;exitY=0.5;exitDx=0;exitDy=0;entryX=0;entryY=0.5;entryDx=0;entryDy=0;" edge="1" parent="1" source="p6Hwav64YAK3mJRrAbid-45" target="p6Hwav64YAK3mJRrAbid-46">
          <mxGeometry relative="1" as="geometry" />
        </mxCell>
      </root>
    </mxGraphModel>
  </diagram>
</mxfile>
